solid OpenSCAD_Model
  facet normal 0.703701 0.0693094 0.707107
    outer loop
      vertex 3.28563 0.653552 0.366131
      vertex 1.35653 0 2.35
      vertex 3.35 0 0.366131
    endloop
  endfacet
  facet normal 0.703705 0.0692946 0.707105
    outer loop
      vertex 3.28563 0.653552 0.366131
      vertex 1.33047 0.264646 2.35
      vertex 1.35653 0 2.35
    endloop
  endfacet
  facet normal -0.676653 -0.205275 0.707109
    outer loop
      vertex -1.33047 -0.264646 2.35
      vertex -3.095 -1.28199 0.366132
      vertex -1.25327 -0.519122 2.35
    endloop
  endfacet
  facet normal -0.676661 -0.205257 0.707106
    outer loop
      vertex -1.33047 -0.264646 2.35
      vertex -3.28563 -0.653552 0.366131
      vertex -3.095 -1.28199 0.366132
    endloop
  endfacet
  facet normal -0.205276 0.676656 0.707105
    outer loop
      vertex -0.264646 1.33047 2.35
      vertex -0.653552 3.28563 0.366131
      vertex -0.519122 1.25327 2.35
    endloop
  endfacet
  facet normal -0.205256 0.67666 0.707108
    outer loop
      vertex -0.519122 1.25327 2.35
      vertex -0.653552 3.28563 0.366131
      vertex -1.28199 3.095 0.366132
    endloop
  endfacet
  facet normal 0.205256 -0.67666 0.707108
    outer loop
      vertex 0.519122 -1.25327 2.35
      vertex 0.653552 -3.28563 0.366131
      vertex 1.28199 -3.095 0.366132
    endloop
  endfacet
  facet normal 0.205276 -0.676656 0.707105
    outer loop
      vertex 0.264646 -1.33047 2.35
      vertex 0.653552 -3.28563 0.366131
      vertex 0.519122 -1.25327 2.35
    endloop
  endfacet
  facet normal -0.623608 0.333334 0.707108
    outer loop
      vertex -2.78542 1.86116 0.366132
      vertex -1.25327 0.519122 2.35
      vertex -1.12791 0.753648 2.35
    endloop
  endfacet
  facet normal -0.623609 0.333333 0.707108
    outer loop
      vertex -1.25327 0.519122 2.35
      vertex -2.78542 1.86116 0.366132
      vertex -3.095 1.28199 0.366132
    endloop
  endfacet
  facet normal 0.333333 0.623609 0.707108
    outer loop
      vertex 1.28199 3.095 0.366132
      vertex 0.753648 1.12791 2.35
      vertex 1.86116 2.78542 0.366132
    endloop
  endfacet
  facet normal 0.333334 0.623608 0.707108
    outer loop
      vertex 0.753648 1.12791 2.35
      vertex 1.28199 3.095 0.366132
      vertex 0.519122 1.25327 2.35
    endloop
  endfacet
  facet normal -0.333334 -0.623608 0.707108
    outer loop
      vertex -0.753648 -1.12791 2.35
      vertex -1.28199 -3.095 0.366132
      vertex -0.519122 -1.25327 2.35
    endloop
  endfacet
  facet normal -0.333333 -0.623609 0.707108
    outer loop
      vertex -1.28199 -3.095 0.366132
      vertex -0.753648 -1.12791 2.35
      vertex -1.86116 -2.78542 0.366132
    endloop
  endfacet
  facet normal 0.623609 -0.333333 0.707108
    outer loop
      vertex 1.25327 -0.519122 2.35
      vertex 2.78542 -1.86116 0.366132
      vertex 3.095 -1.28199 0.366132
    endloop
  endfacet
  facet normal 0.623608 -0.333334 0.707108
    outer loop
      vertex 2.78542 -1.86116 0.366132
      vertex 1.25327 -0.519122 2.35
      vertex 1.12791 -0.753648 2.35
    endloop
  endfacet
  facet normal 0 0.767405 0.641162
    outer loop
      vertex -1.86116 2.78542 0.366132
      vertex -0.753649 1.12791 2.35
      vertex -0.753648 1.12791 2.35
    endloop
  endfacet
  facet normal -0.448578 0.546605 0.707107
    outer loop
      vertex -0.753649 1.12791 2.35
      vertex -1.86116 2.78542 0.366132
      vertex -0.959212 0.959212 2.35
    endloop
  endfacet
  facet normal -0.448578 0.546604 0.707107
    outer loop
      vertex -0.959212 0.959212 2.35
      vertex -1.86116 2.78542 0.366132
      vertex -2.36881 2.36881 0.366132
    endloop
  endfacet
  facet normal -0.676653 0.205275 0.707109
    outer loop
      vertex -3.095 1.28199 0.366132
      vertex -1.33047 0.264646 2.35
      vertex -1.25327 0.519122 2.35
    endloop
  endfacet
  facet normal -0.676661 0.205257 0.707106
    outer loop
      vertex -3.28563 0.653552 0.366131
      vertex -1.33047 0.264646 2.35
      vertex -3.095 1.28199 0.366132
    endloop
  endfacet
  facet normal 0.0693094 0.703702 0.707106
    outer loop
      vertex 0 3.35 0.366131
      vertex 0.264646 1.33047 2.35
      vertex 0.653552 3.28563 0.366131
    endloop
  endfacet
  facet normal 0.0692944 0.703702 0.707108
    outer loop
      vertex 0.264646 1.33047 2.35
      vertex 0 3.35 0.366131
      vertex 0 1.35653 2.35
    endloop
  endfacet
  facet normal 0.546604 0.448578 0.707107
    outer loop
      vertex 1.12791 0.753649 2.35
      vertex 2.78542 1.86116 0.366132
      vertex 2.36881 2.36881 0.366132
    endloop
  endfacet
  facet normal 0.767405 0 0.641162
    outer loop
      vertex 2.78542 1.86116 0.366132
      vertex 1.12791 0.753649 2.35
      vertex 1.12791 0.753648 2.35
    endloop
  endfacet
  facet normal 0.546605 0.448578 0.707107
    outer loop
      vertex 1.12791 0.753649 2.35
      vertex 2.36881 2.36881 0.366132
      vertex 0.959212 0.959212 2.35
    endloop
  endfacet
  facet normal -0.333334 0.623608 0.707108
    outer loop
      vertex -1.28199 3.095 0.366132
      vertex -0.753648 1.12791 2.35
      vertex -0.519122 1.25327 2.35
    endloop
  endfacet
  facet normal -0.333333 0.623609 0.707108
    outer loop
      vertex -0.753648 1.12791 2.35
      vertex -1.28199 3.095 0.366132
      vertex -1.86116 2.78542 0.366132
    endloop
  endfacet
  facet normal -0.546605 0.448578 0.707107
    outer loop
      vertex -2.36881 2.36881 0.366132
      vertex -1.12791 0.753649 2.35
      vertex -0.959212 0.959212 2.35
    endloop
  endfacet
  facet normal -0.546604 0.448578 0.707107
    outer loop
      vertex -2.78542 1.86116 0.366132
      vertex -1.12791 0.753649 2.35
      vertex -2.36881 2.36881 0.366132
    endloop
  endfacet
  facet normal -0.767405 0 0.641162
    outer loop
      vertex -1.12791 0.753649 2.35
      vertex -2.78542 1.86116 0.366132
      vertex -1.12791 0.753648 2.35
    endloop
  endfacet
  facet normal -0.703705 0.0692946 0.707105
    outer loop
      vertex -3.28563 0.653552 0.366131
      vertex -1.35653 0 2.35
      vertex -1.33047 0.264646 2.35
    endloop
  endfacet
  facet normal -0.703701 0.0693094 0.707107
    outer loop
      vertex -1.35653 0 2.35
      vertex -3.28563 0.653552 0.366131
      vertex -3.35 0 0.366131
    endloop
  endfacet
  facet normal 0.205256 0.67666 0.707108
    outer loop
      vertex 0.653552 3.28563 0.366131
      vertex 0.519122 1.25327 2.35
      vertex 1.28199 3.095 0.366132
    endloop
  endfacet
  facet normal 0.205276 0.676656 0.707105
    outer loop
      vertex 0.653552 3.28563 0.366131
      vertex 0.264646 1.33047 2.35
      vertex 0.519122 1.25327 2.35
    endloop
  endfacet
  facet normal -0.0692944 0.703702 0.707108
    outer loop
      vertex 0 3.35 0.366131
      vertex -0.264646 1.33047 2.35
      vertex 0 1.35653 2.35
    endloop
  endfacet
  facet normal -0.0693094 0.703702 0.707106
    outer loop
      vertex -0.653552 3.28563 0.366131
      vertex -0.264646 1.33047 2.35
      vertex 0 3.35 0.366131
    endloop
  endfacet
  facet normal 0.448578 0.546604 0.707107
    outer loop
      vertex 1.86116 2.78542 0.366132
      vertex 0.959212 0.959212 2.35
      vertex 2.36881 2.36881 0.366132
    endloop
  endfacet
  facet normal 0.448578 0.546605 0.707107
    outer loop
      vertex 1.86116 2.78542 0.366132
      vertex 0.753649 1.12791 2.35
      vertex 0.959212 0.959212 2.35
    endloop
  endfacet
  facet normal 0 0.767405 0.641162
    outer loop
      vertex 0.753649 1.12791 2.35
      vertex 1.86116 2.78542 0.366132
      vertex 0.753648 1.12791 2.35
    endloop
  endfacet
  facet normal 0.623609 0.333333 0.707108
    outer loop
      vertex 2.78542 1.86116 0.366132
      vertex 1.25327 0.519122 2.35
      vertex 3.095 1.28199 0.366132
    endloop
  endfacet
  facet normal 0.623608 0.333334 0.707108
    outer loop
      vertex 1.25327 0.519122 2.35
      vertex 2.78542 1.86116 0.366132
      vertex 1.12791 0.753648 2.35
    endloop
  endfacet
  facet normal 0.676661 0.205257 0.707106
    outer loop
      vertex 1.33047 0.264646 2.35
      vertex 3.28563 0.653552 0.366131
      vertex 3.095 1.28199 0.366132
    endloop
  endfacet
  facet normal 0.676653 0.205275 0.707109
    outer loop
      vertex 1.25327 0.519122 2.35
      vertex 1.33047 0.264646 2.35
      vertex 3.095 1.28199 0.366132
    endloop
  endfacet
  facet normal -0.703705 -0.0692946 0.707105
    outer loop
      vertex -1.35653 0 2.35
      vertex -3.28563 -0.653552 0.366131
      vertex -1.33047 -0.264646 2.35
    endloop
  endfacet
  facet normal -0.703701 -0.0693094 0.707107
    outer loop
      vertex -3.28563 -0.653552 0.366131
      vertex -1.35653 0 2.35
      vertex -3.35 0 0.366131
    endloop
  endfacet
  facet normal 0 0 -1
    outer loop
      vertex 3.28563 -0.653552 -0.1
      vertex 3.28563 0.653552 -0.1
      vertex 3.35 0 -0.1
    endloop
  endfacet
  facet normal 0 0 -1
    outer loop
      vertex 3.095 -1.28199 -0.1
      vertex 3.28563 0.653552 -0.1
      vertex 3.28563 -0.653552 -0.1
    endloop
  endfacet
  facet normal 0 0 -1
    outer loop
      vertex 3.095 -1.28199 -0.1
      vertex 3.095 1.28199 -0.1
      vertex 3.28563 0.653552 -0.1
    endloop
  endfacet
  facet normal 0 0 -1
    outer loop
      vertex 2.78542 -1.86116 -0.1
      vertex 3.095 1.28199 -0.1
      vertex 3.095 -1.28199 -0.1
    endloop
  endfacet
  facet normal 0 0 -1
    outer loop
      vertex 2.78542 -1.86116 -0.1
      vertex 2.78542 1.86116 -0.1
      vertex 3.095 1.28199 -0.1
    endloop
  endfacet
  facet normal 0 0 -1
    outer loop
      vertex 2.36881 -2.36881 -0.1
      vertex 2.78542 1.86116 -0.1
      vertex 2.78542 -1.86116 -0.1
    endloop
  endfacet
  facet normal 0 0 -1
    outer loop
      vertex 2.36881 -2.36881 -0.1
      vertex 2.36881 2.36881 -0.1
      vertex 2.78542 1.86116 -0.1
    endloop
  endfacet
  facet normal 0 0 -1
    outer loop
      vertex 1.86116 -2.78542 -0.1
      vertex 2.36881 2.36881 -0.1
      vertex 2.36881 -2.36881 -0.1
    endloop
  endfacet
  facet normal 0 0 -1
    outer loop
      vertex 1.86116 -2.78542 -0.1
      vertex 1.86116 2.78542 -0.1
      vertex 2.36881 2.36881 -0.1
    endloop
  endfacet
  facet normal 0 0 -1
    outer loop
      vertex 1.28199 -3.095 -0.1
      vertex 1.86116 2.78542 -0.1
      vertex 1.86116 -2.78542 -0.1
    endloop
  endfacet
  facet normal 0 0 -1
    outer loop
      vertex 1.28199 -3.095 -0.1
      vertex 1.28199 3.095 -0.1
      vertex 1.86116 2.78542 -0.1
    endloop
  endfacet
  facet normal 0 0 -1
    outer loop
      vertex 0.653552 -3.28563 -0.1
      vertex 1.28199 3.095 -0.1
      vertex 1.28199 -3.095 -0.1
    endloop
  endfacet
  facet normal 0 0 -1
    outer loop
      vertex 0.653552 -3.28563 -0.1
      vertex 0.653552 3.28563 -0.1
      vertex 1.28199 3.095 -0.1
    endloop
  endfacet
  facet normal 0 0 -1
    outer loop
      vertex 0 -3.35 -0.1
      vertex 0.653552 3.28563 -0.1
      vertex 0.653552 -3.28563 -0.1
    endloop
  endfacet
  facet normal 0 0 -1
    outer loop
      vertex 0 -3.35 -0.1
      vertex 0 3.35 -0.1
      vertex 0.653552 3.28563 -0.1
    endloop
  endfacet
  facet normal 0 0 -1
    outer loop
      vertex -0.653552 -3.28563 -0.1
      vertex 0 3.35 -0.1
      vertex 0 -3.35 -0.1
    endloop
  endfacet
  facet normal 0 0 -1
    outer loop
      vertex -0.653552 -3.28563 -0.1
      vertex -0.653552 3.28563 -0.1
      vertex 0 3.35 -0.1
    endloop
  endfacet
  facet normal 0 0 -1
    outer loop
      vertex -1.28199 -3.095 -0.1
      vertex -0.653552 3.28563 -0.1
      vertex -0.653552 -3.28563 -0.1
    endloop
  endfacet
  facet normal 0 0 -1
    outer loop
      vertex -1.28199 -3.095 -0.1
      vertex -1.28199 3.095 -0.1
      vertex -0.653552 3.28563 -0.1
    endloop
  endfacet
  facet normal 0 0 -1
    outer loop
      vertex -1.86116 -2.78542 -0.1
      vertex -1.28199 3.095 -0.1
      vertex -1.28199 -3.095 -0.1
    endloop
  endfacet
  facet normal 0 0 -1
    outer loop
      vertex -1.86116 -2.78542 -0.1
      vertex -1.86116 2.78542 -0.1
      vertex -1.28199 3.095 -0.1
    endloop
  endfacet
  facet normal 0 0 -1
    outer loop
      vertex -2.36881 -2.36881 -0.1
      vertex -1.86116 2.78542 -0.1
      vertex -1.86116 -2.78542 -0.1
    endloop
  endfacet
  facet normal 0 0 -1
    outer loop
      vertex -2.36881 -2.36881 -0.1
      vertex -2.36881 2.36881 -0.1
      vertex -1.86116 2.78542 -0.1
    endloop
  endfacet
  facet normal 0 0 -1
    outer loop
      vertex -2.78542 -1.86116 -0.1
      vertex -2.36881 2.36881 -0.1
      vertex -2.36881 -2.36881 -0.1
    endloop
  endfacet
  facet normal 0 0 -1
    outer loop
      vertex -2.78542 -1.86116 -0.1
      vertex -2.78542 1.86116 -0.1
      vertex -2.36881 2.36881 -0.1
    endloop
  endfacet
  facet normal 0 0 -1
    outer loop
      vertex -3.095 -1.28199 -0.1
      vertex -2.78542 1.86116 -0.1
      vertex -2.78542 -1.86116 -0.1
    endloop
  endfacet
  facet normal 0 0 -1
    outer loop
      vertex -3.095 -1.28199 -0.1
      vertex -3.095 1.28199 -0.1
      vertex -2.78542 1.86116 -0.1
    endloop
  endfacet
  facet normal 0 0 -1
    outer loop
      vertex -3.28563 -0.653552 -0.1
      vertex -3.095 1.28199 -0.1
      vertex -3.095 -1.28199 -0.1
    endloop
  endfacet
  facet normal 0 0 -1
    outer loop
      vertex -3.28563 -0.653552 -0.1
      vertex -3.28563 0.653552 -0.1
      vertex -3.095 1.28199 -0.1
    endloop
  endfacet
  facet normal 0 -0 -1
    outer loop
      vertex -3.28563 0.653552 -0.1
      vertex -3.28563 -0.653552 -0.1
      vertex -3.35 0 -0.1
    endloop
  endfacet
  facet normal -0.546605 -0.448578 0.707107
    outer loop
      vertex -1.12791 -0.753649 2.35
      vertex -2.36881 -2.36881 0.366132
      vertex -0.959212 -0.959212 2.35
    endloop
  endfacet
  facet normal -0.767405 0 0.641162
    outer loop
      vertex -2.78542 -1.86116 0.366132
      vertex -1.12791 -0.753649 2.35
      vertex -1.12791 -0.753648 2.35
    endloop
  endfacet
  facet normal -0.546604 -0.448578 0.707107
    outer loop
      vertex -1.12791 -0.753649 2.35
      vertex -2.78542 -1.86116 0.366132
      vertex -2.36881 -2.36881 0.366132
    endloop
  endfacet
  facet normal -0.623608 -0.333334 0.707108
    outer loop
      vertex -1.25327 -0.519122 2.35
      vertex -2.78542 -1.86116 0.366132
      vertex -1.12791 -0.753648 2.35
    endloop
  endfacet
  facet normal -0.623609 -0.333333 0.707108
    outer loop
      vertex -2.78542 -1.86116 0.366132
      vertex -1.25327 -0.519122 2.35
      vertex -3.095 -1.28199 0.366132
    endloop
  endfacet
  facet normal 0 -0.767405 0.641162
    outer loop
      vertex -0.753649 -1.12791 2.35
      vertex -1.86116 -2.78542 0.366132
      vertex -0.753648 -1.12791 2.35
    endloop
  endfacet
  facet normal -0.448578 -0.546605 0.707107
    outer loop
      vertex -1.86116 -2.78542 0.366132
      vertex -0.753649 -1.12791 2.35
      vertex -0.959212 -0.959212 2.35
    endloop
  endfacet
  facet normal -0.448578 -0.546604 0.707107
    outer loop
      vertex -1.86116 -2.78542 0.366132
      vertex -0.959212 -0.959212 2.35
      vertex -2.36881 -2.36881 0.366132
    endloop
  endfacet
  facet normal -0.0692944 -0.703702 0.707108
    outer loop
      vertex -0.264646 -1.33047 2.35
      vertex 0 -3.35 0.366131
      vertex 0 -1.35653 2.35
    endloop
  endfacet
  facet normal -0.0693094 -0.703702 0.707106
    outer loop
      vertex -0.264646 -1.33047 2.35
      vertex -0.653552 -3.28563 0.366131
      vertex 0 -3.35 0.366131
    endloop
  endfacet
  facet normal -0.205276 -0.676656 0.707105
    outer loop
      vertex -0.653552 -3.28563 0.366131
      vertex -0.264646 -1.33047 2.35
      vertex -0.519122 -1.25327 2.35
    endloop
  endfacet
  facet normal -0.205256 -0.67666 0.707108
    outer loop
      vertex -0.653552 -3.28563 0.366131
      vertex -0.519122 -1.25327 2.35
      vertex -1.28199 -3.095 0.366132
    endloop
  endfacet
  facet normal 0.0692946 -0.703705 0.707105
    outer loop
      vertex 0 -1.35653 2.35
      vertex 0.653552 -3.28563 0.366131
      vertex 0.264646 -1.33047 2.35
    endloop
  endfacet
  facet normal 0.0693094 -0.703701 0.707107
    outer loop
      vertex 0.653552 -3.28563 0.366131
      vertex 0 -1.35653 2.35
      vertex 0 -3.35 0.366131
    endloop
  endfacet
  facet normal 0.448578 -0.546604 0.707107
    outer loop
      vertex 0.959212 -0.959212 2.35
      vertex 1.86116 -2.78542 0.366132
      vertex 2.36881 -2.36881 0.366132
    endloop
  endfacet
  facet normal 0.448578 -0.546605 0.707107
    outer loop
      vertex 0.753649 -1.12791 2.35
      vertex 1.86116 -2.78542 0.366132
      vertex 0.959212 -0.959212 2.35
    endloop
  endfacet
  facet normal 0 -0.767405 0.641162
    outer loop
      vertex 1.86116 -2.78542 0.366132
      vertex 0.753649 -1.12791 2.35
      vertex 0.753648 -1.12791 2.35
    endloop
  endfacet
  facet normal 0.333333 -0.623609 0.707108
    outer loop
      vertex 0.753648 -1.12791 2.35
      vertex 1.28199 -3.095 0.366132
      vertex 1.86116 -2.78542 0.366132
    endloop
  endfacet
  facet normal 0.333334 -0.623608 0.707108
    outer loop
      vertex 1.28199 -3.095 0.366132
      vertex 0.753648 -1.12791 2.35
      vertex 0.519122 -1.25327 2.35
    endloop
  endfacet
  facet normal 0.767405 -0 0.641162
    outer loop
      vertex 1.12791 -0.753649 2.35
      vertex 2.78542 -1.86116 0.366132
      vertex 1.12791 -0.753648 2.35
    endloop
  endfacet
  facet normal 0.546604 -0.448578 0.707107
    outer loop
      vertex 2.78542 -1.86116 0.366132
      vertex 1.12791 -0.753649 2.35
      vertex 2.36881 -2.36881 0.366132
    endloop
  endfacet
  facet normal 0.546605 -0.448578 0.707107
    outer loop
      vertex 2.36881 -2.36881 0.366132
      vertex 1.12791 -0.753649 2.35
      vertex 0.959212 -0.959212 2.35
    endloop
  endfacet
  facet normal 0.703701 -0.0693094 0.707107
    outer loop
      vertex 1.35653 0 2.35
      vertex 3.28563 -0.653552 0.366131
      vertex 3.35 0 0.366131
    endloop
  endfacet
  facet normal 0.703705 -0.0692946 0.707105
    outer loop
      vertex 1.33047 -0.264646 2.35
      vertex 3.28563 -0.653552 0.366131
      vertex 1.35653 0 2.35
    endloop
  endfacet
  facet normal 0.676661 -0.205257 0.707106
    outer loop
      vertex 3.28563 -0.653552 0.366131
      vertex 1.33047 -0.264646 2.35
      vertex 3.095 -1.28199 0.366132
    endloop
  endfacet
  facet normal 0.676653 -0.205275 0.707109
    outer loop
      vertex 1.33047 -0.264646 2.35
      vertex 1.25327 -0.519122 2.35
      vertex 3.095 -1.28199 0.366132
    endloop
  endfacet
  facet normal 0.881917 0.471405 0
    outer loop
      vertex 3.095 1.28199 0.366132
      vertex 2.78542 1.86116 -0.1
      vertex 2.78542 1.86116 0.366132
    endloop
  endfacet
  facet normal 0.881917 0.471405 0
    outer loop
      vertex 2.78542 1.86116 -0.1
      vertex 3.095 1.28199 0.366132
      vertex 3.095 1.28199 -0.1
    endloop
  endfacet
  facet normal -0.995185 0.0980183 0
    outer loop
      vertex -3.35 0 -0.1
      vertex -3.28563 0.653552 0.366131
      vertex -3.28563 0.653552 -0.1
    endloop
  endfacet
  facet normal -0.995185 0.0980183 0
    outer loop
      vertex -3.28563 0.653552 0.366131
      vertex -3.35 0 -0.1
      vertex -3.35 0 0.366131
    endloop
  endfacet
  facet normal 0.773016 0.634386 0
    outer loop
      vertex 2.78542 1.86116 0.366132
      vertex 2.36881 2.36881 -0.1
      vertex 2.36881 2.36881 0.366132
    endloop
  endfacet
  facet normal 0.773016 0.634386 0
    outer loop
      vertex 2.36881 2.36881 -0.1
      vertex 2.78542 1.86116 0.366132
      vertex 2.78542 1.86116 -0.1
    endloop
  endfacet
  facet normal 0.290278 0.956942 -0
    outer loop
      vertex 1.28199 3.095 -0.1
      vertex 0.653552 3.28563 0.366131
      vertex 1.28199 3.095 0.366132
    endloop
  endfacet
  facet normal 0.290278 0.956942 0
    outer loop
      vertex 0.653552 3.28563 0.366131
      vertex 1.28199 3.095 -0.1
      vertex 0.653552 3.28563 -0.1
    endloop
  endfacet
  facet normal -0.471405 0.881917 0
    outer loop
      vertex -1.28199 3.095 -0.1
      vertex -1.86116 2.78542 0.366132
      vertex -1.28199 3.095 0.366132
    endloop
  endfacet
  facet normal -0.471405 0.881917 0
    outer loop
      vertex -1.86116 2.78542 -0.1
      vertex -1.86116 2.78542 0.366132
      vertex -1.28199 3.095 -0.1
    endloop
  endfacet
  facet normal -0.956942 0.290278 0
    outer loop
      vertex -3.28563 0.653552 -0.1
      vertex -3.095 1.28199 0.366132
      vertex -3.095 1.28199 -0.1
    endloop
  endfacet
  facet normal -0.956942 0.290278 0
    outer loop
      vertex -3.095 1.28199 0.366132
      vertex -3.28563 0.653552 -0.1
      vertex -3.28563 0.653552 0.366131
    endloop
  endfacet
  facet normal 0.995185 -0.0980183 0
    outer loop
      vertex 3.28563 -0.653552 0.366131
      vertex 3.35 0 -0.1
      vertex 3.35 0 0.366131
    endloop
  endfacet
  facet normal 0.995185 -0.0980183 0
    outer loop
      vertex 3.28563 -0.653552 0.366131
      vertex 3.28563 -0.653552 -0.1
      vertex 3.35 0 -0.1
    endloop
  endfacet
  facet normal 0.290278 -0.956942 0
    outer loop
      vertex 0.653552 -3.28563 -0.1
      vertex 1.28199 -3.095 0.366132
      vertex 0.653552 -3.28563 0.366131
    endloop
  endfacet
  facet normal 0.290278 -0.956942 0
    outer loop
      vertex 1.28199 -3.095 0.366132
      vertex 0.653552 -3.28563 -0.1
      vertex 1.28199 -3.095 -0.1
    endloop
  endfacet
  facet normal 0.956942 0.290278 0
    outer loop
      vertex 3.28563 0.653552 0.366131
      vertex 3.095 1.28199 -0.1
      vertex 3.095 1.28199 0.366132
    endloop
  endfacet
  facet normal 0.956942 0.290278 0
    outer loop
      vertex 3.095 1.28199 -0.1
      vertex 3.28563 0.653552 0.366131
      vertex 3.28563 0.653552 -0.1
    endloop
  endfacet
  facet normal 0.634386 0.773016 -0
    outer loop
      vertex 2.36881 2.36881 -0.1
      vertex 1.86116 2.78542 0.366132
      vertex 2.36881 2.36881 0.366132
    endloop
  endfacet
  facet normal 0.634386 0.773016 0
    outer loop
      vertex 1.86116 2.78542 0.366132
      vertex 2.36881 2.36881 -0.1
      vertex 1.86116 2.78542 -0.1
    endloop
  endfacet
  facet normal -0.0980183 0.995185 0
    outer loop
      vertex 0 3.35 -0.1
      vertex -0.653552 3.28563 0.366131
      vertex 0 3.35 0.366131
    endloop
  endfacet
  facet normal -0.0980183 0.995185 0
    outer loop
      vertex -0.653552 3.28563 -0.1
      vertex -0.653552 3.28563 0.366131
      vertex 0 3.35 -0.1
    endloop
  endfacet
  facet normal 0.471405 0.881917 0
    outer loop
      vertex 1.86116 2.78542 0.366132
      vertex 1.86116 2.78542 -0.1
      vertex 1.28199 3.095 0.366132
    endloop
  endfacet
  facet normal 0.471405 0.881917 0
    outer loop
      vertex 1.28199 3.095 0.366132
      vertex 1.86116 2.78542 -0.1
      vertex 1.28199 3.095 -0.1
    endloop
  endfacet
  facet normal -0.881917 0.471405 0
    outer loop
      vertex -3.095 1.28199 -0.1
      vertex -2.78542 1.86116 0.366132
      vertex -2.78542 1.86116 -0.1
    endloop
  endfacet
  facet normal -0.881917 0.471405 0
    outer loop
      vertex -2.78542 1.86116 0.366132
      vertex -3.095 1.28199 -0.1
      vertex -3.095 1.28199 0.366132
    endloop
  endfacet
  facet normal -0.634386 0.773016 0
    outer loop
      vertex -1.86116 2.78542 -0.1
      vertex -2.36881 2.36881 0.366132
      vertex -1.86116 2.78542 0.366132
    endloop
  endfacet
  facet normal -0.634386 0.773016 0
    outer loop
      vertex -2.36881 2.36881 0.366132
      vertex -1.86116 2.78542 -0.1
      vertex -2.36881 2.36881 -0.1
    endloop
  endfacet
  facet normal -0.290278 0.956942 0
    outer loop
      vertex -0.653552 3.28563 -0.1
      vertex -1.28199 3.095 0.366132
      vertex -0.653552 3.28563 0.366131
    endloop
  endfacet
  facet normal -0.290278 0.956942 0
    outer loop
      vertex -1.28199 3.095 0.366132
      vertex -0.653552 3.28563 -0.1
      vertex -1.28199 3.095 -0.1
    endloop
  endfacet
  facet normal -0.773016 0.634386 0
    outer loop
      vertex -2.78542 1.86116 -0.1
      vertex -2.36881 2.36881 0.366132
      vertex -2.36881 2.36881 -0.1
    endloop
  endfacet
  facet normal -0.773016 0.634386 0
    outer loop
      vertex -2.36881 2.36881 0.366132
      vertex -2.78542 1.86116 -0.1
      vertex -2.78542 1.86116 0.366132
    endloop
  endfacet
  facet normal 0.995185 0.0980183 0
    outer loop
      vertex 3.35 0 0.366131
      vertex 3.28563 0.653552 -0.1
      vertex 3.28563 0.653552 0.366131
    endloop
  endfacet
  facet normal 0.995185 0.0980183 0
    outer loop
      vertex 3.28563 0.653552 -0.1
      vertex 3.35 0 0.366131
      vertex 3.35 0 -0.1
    endloop
  endfacet
  facet normal 0.634386 -0.773016 0
    outer loop
      vertex 1.86116 -2.78542 -0.1
      vertex 2.36881 -2.36881 0.366132
      vertex 1.86116 -2.78542 0.366132
    endloop
  endfacet
  facet normal 0.634386 -0.773016 0
    outer loop
      vertex 2.36881 -2.36881 0.366132
      vertex 1.86116 -2.78542 -0.1
      vertex 2.36881 -2.36881 -0.1
    endloop
  endfacet
  facet normal 0.0980183 0.995185 0
    outer loop
      vertex 0.653552 3.28563 0.366131
      vertex 0.653552 3.28563 -0.1
      vertex 0 3.35 0.366131
    endloop
  endfacet
  facet normal 0.0980183 0.995185 0
    outer loop
      vertex 0 3.35 0.366131
      vertex 0.653552 3.28563 -0.1
      vertex 0 3.35 -0.1
    endloop
  endfacet
  facet normal 0.881917 -0.471405 0
    outer loop
      vertex 2.78542 -1.86116 0.366132
      vertex 3.095 -1.28199 -0.1
      vertex 3.095 -1.28199 0.366132
    endloop
  endfacet
  facet normal 0.881917 -0.471405 0
    outer loop
      vertex 2.78542 -1.86116 0.366132
      vertex 2.78542 -1.86116 -0.1
      vertex 3.095 -1.28199 -0.1
    endloop
  endfacet
  facet normal -0.0980183 -0.995185 -0
    outer loop
      vertex -0.653552 -3.28563 0.366131
      vertex -0.653552 -3.28563 -0.1
      vertex 0 -3.35 0.366131
    endloop
  endfacet
  facet normal -0.0980183 -0.995185 -0
    outer loop
      vertex 0 -3.35 0.366131
      vertex -0.653552 -3.28563 -0.1
      vertex 0 -3.35 -0.1
    endloop
  endfacet
  facet normal -0.995185 -0.0980183 0
    outer loop
      vertex -3.35 0 -0.1
      vertex -3.28563 -0.653552 0.366131
      vertex -3.35 0 0.366131
    endloop
  endfacet
  facet normal -0.995185 -0.0980183 0
    outer loop
      vertex -3.28563 -0.653552 -0.1
      vertex -3.28563 -0.653552 0.366131
      vertex -3.35 0 -0.1
    endloop
  endfacet
  facet normal 0.471405 -0.881917 0
    outer loop
      vertex 1.28199 -3.095 -0.1
      vertex 1.86116 -2.78542 0.366132
      vertex 1.28199 -3.095 0.366132
    endloop
  endfacet
  facet normal 0.471405 -0.881917 0
    outer loop
      vertex 1.86116 -2.78542 -0.1
      vertex 1.86116 -2.78542 0.366132
      vertex 1.28199 -3.095 -0.1
    endloop
  endfacet
  facet normal 0.956942 -0.290278 0
    outer loop
      vertex 3.095 -1.28199 0.366132
      vertex 3.28563 -0.653552 -0.1
      vertex 3.28563 -0.653552 0.366131
    endloop
  endfacet
  facet normal 0.956942 -0.290278 0
    outer loop
      vertex 3.28563 -0.653552 -0.1
      vertex 3.095 -1.28199 0.366132
      vertex 3.095 -1.28199 -0.1
    endloop
  endfacet
  facet normal 0.0980183 -0.995185 0
    outer loop
      vertex 0 -3.35 -0.1
      vertex 0.653552 -3.28563 0.366131
      vertex 0 -3.35 0.366131
    endloop
  endfacet
  facet normal 0.0980183 -0.995185 0
    outer loop
      vertex 0.653552 -3.28563 -0.1
      vertex 0.653552 -3.28563 0.366131
      vertex 0 -3.35 -0.1
    endloop
  endfacet
  facet normal -0.471405 -0.881917 -0
    outer loop
      vertex -1.86116 -2.78542 0.366132
      vertex -1.86116 -2.78542 -0.1
      vertex -1.28199 -3.095 0.366132
    endloop
  endfacet
  facet normal -0.471405 -0.881917 -0
    outer loop
      vertex -1.28199 -3.095 0.366132
      vertex -1.86116 -2.78542 -0.1
      vertex -1.28199 -3.095 -0.1
    endloop
  endfacet
  facet normal -0.290278 -0.956942 0
    outer loop
      vertex -1.28199 -3.095 -0.1
      vertex -0.653552 -3.28563 0.366131
      vertex -1.28199 -3.095 0.366132
    endloop
  endfacet
  facet normal -0.290278 -0.956942 -0
    outer loop
      vertex -0.653552 -3.28563 0.366131
      vertex -1.28199 -3.095 -0.1
      vertex -0.653552 -3.28563 -0.1
    endloop
  endfacet
  facet normal -0.773016 -0.634386 0
    outer loop
      vertex -2.36881 -2.36881 -0.1
      vertex -2.78542 -1.86116 0.366132
      vertex -2.78542 -1.86116 -0.1
    endloop
  endfacet
  facet normal -0.773016 -0.634386 0
    outer loop
      vertex -2.78542 -1.86116 0.366132
      vertex -2.36881 -2.36881 -0.1
      vertex -2.36881 -2.36881 0.366132
    endloop
  endfacet
  facet normal -0.881917 -0.471405 0
    outer loop
      vertex -3.095 -1.28199 -0.1
      vertex -2.78542 -1.86116 0.366132
      vertex -3.095 -1.28199 0.366132
    endloop
  endfacet
  facet normal -0.881917 -0.471405 0
    outer loop
      vertex -2.78542 -1.86116 -0.1
      vertex -2.78542 -1.86116 0.366132
      vertex -3.095 -1.28199 -0.1
    endloop
  endfacet
  facet normal -0.634386 -0.773016 0
    outer loop
      vertex -2.36881 -2.36881 -0.1
      vertex -1.86116 -2.78542 0.366132
      vertex -2.36881 -2.36881 0.366132
    endloop
  endfacet
  facet normal -0.634386 -0.773016 -0
    outer loop
      vertex -1.86116 -2.78542 0.366132
      vertex -2.36881 -2.36881 -0.1
      vertex -1.86116 -2.78542 -0.1
    endloop
  endfacet
  facet normal 0.773016 -0.634386 0
    outer loop
      vertex 2.36881 -2.36881 0.366132
      vertex 2.78542 -1.86116 -0.1
      vertex 2.78542 -1.86116 0.366132
    endloop
  endfacet
  facet normal 0.773016 -0.634386 0
    outer loop
      vertex 2.78542 -1.86116 -0.1
      vertex 2.36881 -2.36881 0.366132
      vertex 2.36881 -2.36881 -0.1
    endloop
  endfacet
  facet normal -0.956942 -0.290278 0
    outer loop
      vertex -3.095 -1.28199 -0.1
      vertex -3.28563 -0.653552 0.366131
      vertex -3.28563 -0.653552 -0.1
    endloop
  endfacet
  facet normal -0.956942 -0.290278 0
    outer loop
      vertex -3.28563 -0.653552 0.366131
      vertex -3.095 -1.28199 -0.1
      vertex -3.095 -1.28199 0.366132
    endloop
  endfacet
  facet normal 0.995187 0.0979972 0
    outer loop
      vertex 1.35653 0 4.8
      vertex 1.33047 0.264646 2.35
      vertex 1.33047 0.264646 4.8
    endloop
  endfacet
  facet normal 0.995187 0.0979972 0
    outer loop
      vertex 1.33047 0.264646 2.35
      vertex 1.35653 0 4.8
      vertex 1.35653 0 2.35
    endloop
  endfacet
  facet normal -0.995187 0.0979972 0
    outer loop
      vertex -1.35653 0 2.35
      vertex -1.33047 0.264646 4.8
      vertex -1.33047 0.264646 2.35
    endloop
  endfacet
  facet normal -0.995187 0.0979972 0
    outer loop
      vertex -1.33047 0.264646 4.8
      vertex -1.35653 0 2.35
      vertex -1.35653 0 4.8
    endloop
  endfacet
  facet normal -0.0979972 0.995187 0
    outer loop
      vertex 0 1.35653 2.35
      vertex -0.264646 1.33047 4.8
      vertex 0 1.35653 4.8
    endloop
  endfacet
  facet normal -0.0979972 0.995187 0
    outer loop
      vertex -0.264646 1.33047 4.8
      vertex 0 1.35653 2.35
      vertex -0.264646 1.33047 2.35
    endloop
  endfacet
  facet normal 0.0979972 -0.995187 0
    outer loop
      vertex 0 -1.35653 2.35
      vertex 0.264646 -1.33047 4.8
      vertex 0 -1.35653 4.8
    endloop
  endfacet
  facet normal 0.0979972 -0.995187 0
    outer loop
      vertex 0.264646 -1.33047 4.8
      vertex 0 -1.35653 2.35
      vertex 0.264646 -1.33047 2.35
    endloop
  endfacet
  facet normal 0.634386 0.773016 -0
    outer loop
      vertex 0.959212 0.959212 2.35
      vertex 0.753649 1.12791 4.8
      vertex 0.959212 0.959212 4.8
    endloop
  endfacet
  facet normal 0.634386 0.773016 0
    outer loop
      vertex 0.753649 1.12791 4.8
      vertex 0.959212 0.959212 2.35
      vertex 0.753649 1.12791 2.35
    endloop
  endfacet
  facet normal -0.773016 0.634386 0
    outer loop
      vertex -1.12791 0.753649 2.35
      vertex -0.959212 0.959212 4.8
      vertex -0.959212 0.959212 2.35
    endloop
  endfacet
  facet normal -0.773016 0.634386 0
    outer loop
      vertex -0.959212 0.959212 4.8
      vertex -1.12791 0.753649 2.35
      vertex -1.12791 0.753649 4.8
    endloop
  endfacet
  facet normal -1 0 0
    outer loop
      vertex -1.12791 0.753648 2.35
      vertex -1.12791 0.753649 4.8
      vertex -1.12791 0.753649 2.35
    endloop
  endfacet
  facet normal -0.881916 0.471406 -1.92411e-07
    outer loop
      vertex -1.25327 0.519122 2.35
      vertex -1.12791 0.753649 4.8
      vertex -1.12791 0.753648 2.35
    endloop
  endfacet
  facet normal -0.881917 0.471405 0
    outer loop
      vertex -1.25327 0.519122 2.35
      vertex -1.25327 0.519122 4.8
      vertex -1.12791 0.753649 4.8
    endloop
  endfacet
  facet normal -0.471405 0.881917 -1.9241e-07
    outer loop
      vertex -0.519122 1.25327 4.8
      vertex -0.753648 1.12791 2.35
      vertex -0.753649 1.12791 4.8
    endloop
  endfacet
  facet normal -0.471406 0.881916 0
    outer loop
      vertex -0.519122 1.25327 4.8
      vertex -0.519122 1.25327 2.35
      vertex -0.753648 1.12791 2.35
    endloop
  endfacet
  facet normal 0 1 0
    outer loop
      vertex -0.753649 1.12791 4.8
      vertex -0.753648 1.12791 2.35
      vertex -0.753649 1.12791 2.35
    endloop
  endfacet
  facet normal 0.881916 -0.471406 0
    outer loop
      vertex 1.25327 -0.519122 4.8
      vertex 1.12791 -0.753648 2.35
      vertex 1.25327 -0.519122 2.35
    endloop
  endfacet
  facet normal 0.881917 -0.471405 -1.9241e-07
    outer loop
      vertex 1.12791 -0.753649 4.8
      vertex 1.12791 -0.753648 2.35
      vertex 1.25327 -0.519122 4.8
    endloop
  endfacet
  facet normal 1 0 0
    outer loop
      vertex 1.12791 -0.753648 2.35
      vertex 1.12791 -0.753649 4.8
      vertex 1.12791 -0.753649 2.35
    endloop
  endfacet
  facet normal 1 0 0
    outer loop
      vertex 1.12791 0.753649 4.8
      vertex 1.12791 0.753648 2.35
      vertex 1.12791 0.753649 2.35
    endloop
  endfacet
  facet normal 0.881916 0.471406 -1.92411e-07
    outer loop
      vertex 1.12791 0.753649 4.8
      vertex 1.25327 0.519122 2.35
      vertex 1.12791 0.753648 2.35
    endloop
  endfacet
  facet normal 0.881917 0.471405 0
    outer loop
      vertex 1.25327 0.519122 4.8
      vertex 1.25327 0.519122 2.35
      vertex 1.12791 0.753649 4.8
    endloop
  endfacet
  facet normal 0.956935 0.290304 0
    outer loop
      vertex 1.25327 0.519122 4.8
      vertex 1.33047 0.264646 2.35
      vertex 1.25327 0.519122 2.35
    endloop
  endfacet
  facet normal 0.956935 0.290304 0
    outer loop
      vertex 1.33047 0.264646 4.8
      vertex 1.33047 0.264646 2.35
      vertex 1.25327 0.519122 4.8
    endloop
  endfacet
  facet normal 0.773016 0.634386 0
    outer loop
      vertex 1.12791 0.753649 4.8
      vertex 0.959212 0.959212 2.35
      vertex 0.959212 0.959212 4.8
    endloop
  endfacet
  facet normal 0.773016 0.634386 0
    outer loop
      vertex 0.959212 0.959212 2.35
      vertex 1.12791 0.753649 4.8
      vertex 1.12791 0.753649 2.35
    endloop
  endfacet
  facet normal 0.290304 0.956935 0
    outer loop
      vertex 0.519122 1.25327 4.8
      vertex 0.264646 1.33047 2.35
      vertex 0.264646 1.33047 4.8
    endloop
  endfacet
  facet normal 0.290304 0.956935 0
    outer loop
      vertex 0.264646 1.33047 2.35
      vertex 0.519122 1.25327 4.8
      vertex 0.519122 1.25327 2.35
    endloop
  endfacet
  facet normal 0.0979972 0.995187 0
    outer loop
      vertex 0.264646 1.33047 4.8
      vertex 0 1.35653 2.35
      vertex 0 1.35653 4.8
    endloop
  endfacet
  facet normal 0.0979972 0.995187 0
    outer loop
      vertex 0 1.35653 2.35
      vertex 0.264646 1.33047 4.8
      vertex 0.264646 1.33047 2.35
    endloop
  endfacet
  facet normal 0 1 0
    outer loop
      vertex 0.753648 1.12791 2.35
      vertex 0.753649 1.12791 4.8
      vertex 0.753649 1.12791 2.35
    endloop
  endfacet
  facet normal 0.471405 0.881917 -1.9241e-07
    outer loop
      vertex 0.753649 1.12791 4.8
      vertex 0.753648 1.12791 2.35
      vertex 0.519122 1.25327 4.8
    endloop
  endfacet
  facet normal 0.471406 0.881916 -0
    outer loop
      vertex 0.519122 1.25327 2.35
      vertex 0.519122 1.25327 4.8
      vertex 0.753648 1.12791 2.35
    endloop
  endfacet
  facet normal -0.956935 0.290304 0
    outer loop
      vertex -1.33047 0.264646 2.35
      vertex -1.25327 0.519122 4.8
      vertex -1.25327 0.519122 2.35
    endloop
  endfacet
  facet normal -0.956935 0.290304 0
    outer loop
      vertex -1.33047 0.264646 2.35
      vertex -1.33047 0.264646 4.8
      vertex -1.25327 0.519122 4.8
    endloop
  endfacet
  facet normal 0 0 1
    outer loop
      vertex 1.33047 0.264646 4.8
      vertex 1.33047 -0.264646 4.8
      vertex 1.35653 0 4.8
    endloop
  endfacet
  facet normal 0 0 1
    outer loop
      vertex 1.25327 0.519122 4.8
      vertex 1.33047 -0.264646 4.8
      vertex 1.33047 0.264646 4.8
    endloop
  endfacet
  facet normal 0 0 1
    outer loop
      vertex 1.25327 0.519122 4.8
      vertex 1.25327 -0.519122 4.8
      vertex 1.33047 -0.264646 4.8
    endloop
  endfacet
  facet normal 0 0 1
    outer loop
      vertex 1.12791 0.753649 4.8
      vertex 1.25327 -0.519122 4.8
      vertex 1.25327 0.519122 4.8
    endloop
  endfacet
  facet normal 0 0 1
    outer loop
      vertex 1.12791 0.753649 4.8
      vertex 1.12791 -0.753649 4.8
      vertex 1.25327 -0.519122 4.8
    endloop
  endfacet
  facet normal 0 0 1
    outer loop
      vertex 0.959212 0.959212 4.8
      vertex 1.12791 -0.753649 4.8
      vertex 1.12791 0.753649 4.8
    endloop
  endfacet
  facet normal 0 0 1
    outer loop
      vertex 0.959212 0.959212 4.8
      vertex 0.959212 -0.959212 4.8
      vertex 1.12791 -0.753649 4.8
    endloop
  endfacet
  facet normal 0 0 1
    outer loop
      vertex 0.753649 1.12791 4.8
      vertex 0.959212 -0.959212 4.8
      vertex 0.959212 0.959212 4.8
    endloop
  endfacet
  facet normal 0 0 1
    outer loop
      vertex 0.753649 1.12791 4.8
      vertex 0.753649 -1.12791 4.8
      vertex 0.959212 -0.959212 4.8
    endloop
  endfacet
  facet normal 0 0 1
    outer loop
      vertex 0.519122 1.25327 4.8
      vertex 0.753649 -1.12791 4.8
      vertex 0.753649 1.12791 4.8
    endloop
  endfacet
  facet normal 0 0 1
    outer loop
      vertex 0.519122 1.25327 4.8
      vertex 0.519122 -1.25327 4.8
      vertex 0.753649 -1.12791 4.8
    endloop
  endfacet
  facet normal 0 0 1
    outer loop
      vertex 0.264646 1.33047 4.8
      vertex 0.519122 -1.25327 4.8
      vertex 0.519122 1.25327 4.8
    endloop
  endfacet
  facet normal 0 0 1
    outer loop
      vertex 0.264646 1.33047 4.8
      vertex 0.264646 -1.33047 4.8
      vertex 0.519122 -1.25327 4.8
    endloop
  endfacet
  facet normal 0 0 1
    outer loop
      vertex 0 1.35653 4.8
      vertex 0.264646 -1.33047 4.8
      vertex 0.264646 1.33047 4.8
    endloop
  endfacet
  facet normal 0 0 1
    outer loop
      vertex 0 1.35653 4.8
      vertex 0 -1.35653 4.8
      vertex 0.264646 -1.33047 4.8
    endloop
  endfacet
  facet normal -0 0 1
    outer loop
      vertex -0.264646 1.33047 4.8
      vertex 0 -1.35653 4.8
      vertex 0 1.35653 4.8
    endloop
  endfacet
  facet normal 0 0 1
    outer loop
      vertex -0.264646 1.33047 4.8
      vertex -0.264646 -1.33047 4.8
      vertex 0 -1.35653 4.8
    endloop
  endfacet
  facet normal -0 0 1
    outer loop
      vertex -0.519122 1.25327 4.8
      vertex -0.264646 -1.33047 4.8
      vertex -0.264646 1.33047 4.8
    endloop
  endfacet
  facet normal 0 0 1
    outer loop
      vertex -0.519122 1.25327 4.8
      vertex -0.519122 -1.25327 4.8
      vertex -0.264646 -1.33047 4.8
    endloop
  endfacet
  facet normal -0 0 1
    outer loop
      vertex -0.753649 1.12791 4.8
      vertex -0.519122 -1.25327 4.8
      vertex -0.519122 1.25327 4.8
    endloop
  endfacet
  facet normal 0 0 1
    outer loop
      vertex -0.753649 1.12791 4.8
      vertex -0.753649 -1.12791 4.8
      vertex -0.519122 -1.25327 4.8
    endloop
  endfacet
  facet normal -0 0 1
    outer loop
      vertex -0.959212 0.959212 4.8
      vertex -0.753649 -1.12791 4.8
      vertex -0.753649 1.12791 4.8
    endloop
  endfacet
  facet normal 0 0 1
    outer loop
      vertex -0.959212 0.959212 4.8
      vertex -0.959212 -0.959212 4.8
      vertex -0.753649 -1.12791 4.8
    endloop
  endfacet
  facet normal -0 0 1
    outer loop
      vertex -1.12791 0.753649 4.8
      vertex -0.959212 -0.959212 4.8
      vertex -0.959212 0.959212 4.8
    endloop
  endfacet
  facet normal 0 0 1
    outer loop
      vertex -1.12791 0.753649 4.8
      vertex -1.12791 -0.753649 4.8
      vertex -0.959212 -0.959212 4.8
    endloop
  endfacet
  facet normal -0 0 1
    outer loop
      vertex -1.25327 0.519122 4.8
      vertex -1.12791 -0.753649 4.8
      vertex -1.12791 0.753649 4.8
    endloop
  endfacet
  facet normal 0 0 1
    outer loop
      vertex -1.25327 0.519122 4.8
      vertex -1.25327 -0.519122 4.8
      vertex -1.12791 -0.753649 4.8
    endloop
  endfacet
  facet normal -0 0 1
    outer loop
      vertex -1.33047 0.264646 4.8
      vertex -1.25327 -0.519122 4.8
      vertex -1.25327 0.519122 4.8
    endloop
  endfacet
  facet normal 0 0 1
    outer loop
      vertex -1.33047 0.264646 4.8
      vertex -1.33047 -0.264646 4.8
      vertex -1.25327 -0.519122 4.8
    endloop
  endfacet
  facet normal 0 -0 1
    outer loop
      vertex -1.33047 -0.264646 4.8
      vertex -1.33047 0.264646 4.8
      vertex -1.35653 0 4.8
    endloop
  endfacet
  facet normal -0.634386 0.773016 0
    outer loop
      vertex -0.753649 1.12791 2.35
      vertex -0.959212 0.959212 4.8
      vertex -0.753649 1.12791 4.8
    endloop
  endfacet
  facet normal -0.634386 0.773016 0
    outer loop
      vertex -0.959212 0.959212 4.8
      vertex -0.753649 1.12791 2.35
      vertex -0.959212 0.959212 2.35
    endloop
  endfacet
  facet normal -0.290304 0.956935 0
    outer loop
      vertex -0.264646 1.33047 4.8
      vertex -0.264646 1.33047 2.35
      vertex -0.519122 1.25327 4.8
    endloop
  endfacet
  facet normal -0.290304 0.956935 0
    outer loop
      vertex -0.519122 1.25327 4.8
      vertex -0.264646 1.33047 2.35
      vertex -0.519122 1.25327 2.35
    endloop
  endfacet
  facet normal 0.995187 -0.0979972 0
    outer loop
      vertex 1.33047 -0.264646 4.8
      vertex 1.35653 0 2.35
      vertex 1.35653 0 4.8
    endloop
  endfacet
  facet normal 0.995187 -0.0979972 0
    outer loop
      vertex 1.35653 0 2.35
      vertex 1.33047 -0.264646 4.8
      vertex 1.33047 -0.264646 2.35
    endloop
  endfacet
  facet normal 0.290304 -0.956935 0
    outer loop
      vertex 0.264646 -1.33047 4.8
      vertex 0.264646 -1.33047 2.35
      vertex 0.519122 -1.25327 4.8
    endloop
  endfacet
  facet normal 0.290304 -0.956935 0
    outer loop
      vertex 0.519122 -1.25327 4.8
      vertex 0.264646 -1.33047 2.35
      vertex 0.519122 -1.25327 2.35
    endloop
  endfacet
  facet normal 0.956935 -0.290304 0
    outer loop
      vertex 1.25327 -0.519122 4.8
      vertex 1.33047 -0.264646 2.35
      vertex 1.33047 -0.264646 4.8
    endloop
  endfacet
  facet normal 0.956935 -0.290304 0
    outer loop
      vertex 1.33047 -0.264646 2.35
      vertex 1.25327 -0.519122 4.8
      vertex 1.25327 -0.519122 2.35
    endloop
  endfacet
  facet normal -0.881916 -0.471406 0
    outer loop
      vertex -1.12791 -0.753648 2.35
      vertex -1.25327 -0.519122 4.8
      vertex -1.25327 -0.519122 2.35
    endloop
  endfacet
  facet normal -1 0 0
    outer loop
      vertex -1.12791 -0.753649 4.8
      vertex -1.12791 -0.753648 2.35
      vertex -1.12791 -0.753649 2.35
    endloop
  endfacet
  facet normal -0.881917 -0.471405 -1.9241e-07
    outer loop
      vertex -1.12791 -0.753648 2.35
      vertex -1.12791 -0.753649 4.8
      vertex -1.25327 -0.519122 4.8
    endloop
  endfacet
  facet normal 0.634386 -0.773016 0
    outer loop
      vertex 0.753649 -1.12791 2.35
      vertex 0.959212 -0.959212 4.8
      vertex 0.753649 -1.12791 4.8
    endloop
  endfacet
  facet normal 0.634386 -0.773016 0
    outer loop
      vertex 0.959212 -0.959212 4.8
      vertex 0.753649 -1.12791 2.35
      vertex 0.959212 -0.959212 2.35
    endloop
  endfacet
  facet normal 0.471405 -0.881917 -1.9241e-07
    outer loop
      vertex 0.519122 -1.25327 4.8
      vertex 0.753648 -1.12791 2.35
      vertex 0.753649 -1.12791 4.8
    endloop
  endfacet
  facet normal 0.471406 -0.881916 0
    outer loop
      vertex 0.519122 -1.25327 4.8
      vertex 0.519122 -1.25327 2.35
      vertex 0.753648 -1.12791 2.35
    endloop
  endfacet
  facet normal 0 -1 -0
    outer loop
      vertex 0.753649 -1.12791 4.8
      vertex 0.753648 -1.12791 2.35
      vertex 0.753649 -1.12791 2.35
    endloop
  endfacet
  facet normal -0.0979972 -0.995187 0
    outer loop
      vertex -0.264646 -1.33047 4.8
      vertex 0 -1.35653 2.35
      vertex 0 -1.35653 4.8
    endloop
  endfacet
  facet normal -0.0979972 -0.995187 0
    outer loop
      vertex 0 -1.35653 2.35
      vertex -0.264646 -1.33047 4.8
      vertex -0.264646 -1.33047 2.35
    endloop
  endfacet
  facet normal -0.956935 -0.290304 0
    outer loop
      vertex -1.25327 -0.519122 2.35
      vertex -1.33047 -0.264646 4.8
      vertex -1.33047 -0.264646 2.35
    endloop
  endfacet
  facet normal -0.956935 -0.290304 0
    outer loop
      vertex -1.33047 -0.264646 4.8
      vertex -1.25327 -0.519122 2.35
      vertex -1.25327 -0.519122 4.8
    endloop
  endfacet
  facet normal -0.995187 -0.0979972 0
    outer loop
      vertex -1.33047 -0.264646 2.35
      vertex -1.35653 0 4.8
      vertex -1.35653 0 2.35
    endloop
  endfacet
  facet normal -0.995187 -0.0979972 0
    outer loop
      vertex -1.35653 0 4.8
      vertex -1.33047 -0.264646 2.35
      vertex -1.33047 -0.264646 4.8
    endloop
  endfacet
  facet normal 0.773016 -0.634386 0
    outer loop
      vertex 0.959212 -0.959212 4.8
      vertex 1.12791 -0.753649 2.35
      vertex 1.12791 -0.753649 4.8
    endloop
  endfacet
  facet normal 0.773016 -0.634386 0
    outer loop
      vertex 1.12791 -0.753649 2.35
      vertex 0.959212 -0.959212 4.8
      vertex 0.959212 -0.959212 2.35
    endloop
  endfacet
  facet normal 0 -1 0
    outer loop
      vertex -0.753648 -1.12791 2.35
      vertex -0.753649 -1.12791 4.8
      vertex -0.753649 -1.12791 2.35
    endloop
  endfacet
  facet normal -0.471405 -0.881917 -1.9241e-07
    outer loop
      vertex -0.753649 -1.12791 4.8
      vertex -0.753648 -1.12791 2.35
      vertex -0.519122 -1.25327 4.8
    endloop
  endfacet
  facet normal -0.471406 -0.881916 0
    outer loop
      vertex -0.519122 -1.25327 2.35
      vertex -0.519122 -1.25327 4.8
      vertex -0.753648 -1.12791 2.35
    endloop
  endfacet
  facet normal -0.290304 -0.956935 0
    outer loop
      vertex -0.519122 -1.25327 4.8
      vertex -0.264646 -1.33047 2.35
      vertex -0.264646 -1.33047 4.8
    endloop
  endfacet
  facet normal -0.290304 -0.956935 0
    outer loop
      vertex -0.264646 -1.33047 2.35
      vertex -0.519122 -1.25327 4.8
      vertex -0.519122 -1.25327 2.35
    endloop
  endfacet
  facet normal -0.773016 -0.634386 0
    outer loop
      vertex -0.959212 -0.959212 2.35
      vertex -1.12791 -0.753649 4.8
      vertex -1.12791 -0.753649 2.35
    endloop
  endfacet
  facet normal -0.773016 -0.634386 0
    outer loop
      vertex -1.12791 -0.753649 4.8
      vertex -0.959212 -0.959212 2.35
      vertex -0.959212 -0.959212 4.8
    endloop
  endfacet
  facet normal -0.634386 -0.773016 0
    outer loop
      vertex -0.959212 -0.959212 2.35
      vertex -0.753649 -1.12791 4.8
      vertex -0.959212 -0.959212 4.8
    endloop
  endfacet
  facet normal -0.634386 -0.773016 -0
    outer loop
      vertex -0.753649 -1.12791 4.8
      vertex -0.959212 -0.959212 2.35
      vertex -0.753649 -1.12791 2.35
    endloop
  endfacet
endsolid OpenSCAD_Model
